# vtk DataFile Version 4.2
iGame PointVolumeInterpolator demo (tetra volume)
ASCII
DATASET UNSTRUCTURED_GRID
POINTS 216 double
0.0 0.0 0.0
1.0 0.0 0.0
2.0 0.0 0.0
3.0 0.0 0.0
4.0 0.0 0.0
5.0 0.0 0.0
0.0 1.0 0.0
1.0 1.0 0.0
2.0 1.0 0.0
3.0 1.0 0.0
4.0 1.0 0.0
5.0 1.0 0.0
0.0 2.0 0.0
1.0 2.0 0.0
2.0 2.0 0.0
3.0 2.0 0.0
4.0 2.0 0.0
5.0 2.0 0.0
0.0 3.0 0.0
1.0 3.0 0.0
2.0 3.0 0.0
3.0 3.0 0.0
4.0 3.0 0.0
5.0 3.0 0.0
0.0 4.0 0.0
1.0 4.0 0.0
2.0 4.0 0.0
3.0 4.0 0.0
4.0 4.0 0.0
5.0 4.0 0.0
0.0 5.0 0.0
1.0 5.0 0.0
2.0 5.0 0.0
3.0 5.0 0.0
4.0 5.0 0.0
5.0 5.0 0.0
0.0 0.0 1.0
1.0 0.0 1.0
2.0 0.0 1.0
3.0 0.0 1.0
4.0 0.0 1.0
5.0 0.0 1.0
0.0 1.0 1.0
1.0 1.0 1.0
2.0 1.0 1.0
3.0 1.0 1.0
4.0 1.0 1.0
5.0 1.0 1.0
0.0 2.0 1.0
1.0 2.0 1.0
2.0 2.0 1.0
3.0 2.0 1.0
4.0 2.0 1.0
5.0 2.0 1.0
0.0 3.0 1.0
1.0 3.0 1.0
2.0 3.0 1.0
3.0 3.0 1.0
4.0 3.0 1.0
5.0 3.0 1.0
0.0 4.0 1.0
1.0 4.0 1.0
2.0 4.0 1.0
3.0 4.0 1.0
4.0 4.0 1.0
5.0 4.0 1.0
0.0 5.0 1.0
1.0 5.0 1.0
2.0 5.0 1.0
3.0 5.0 1.0
4.0 5.0 1.0
5.0 5.0 1.0
0.0 0.0 2.0
1.0 0.0 2.0
2.0 0.0 2.0
3.0 0.0 2.0
4.0 0.0 2.0
5.0 0.0 2.0
0.0 1.0 2.0
1.0 1.0 2.0
2.0 1.0 2.0
3.0 1.0 2.0
4.0 1.0 2.0
5.0 1.0 2.0
0.0 2.0 2.0
1.0 2.0 2.0
2.0 2.0 2.0
3.0 2.0 2.0
4.0 2.0 2.0
5.0 2.0 2.0
0.0 3.0 2.0
1.0 3.0 2.0
2.0 3.0 2.0
3.0 3.0 2.0
4.0 3.0 2.0
5.0 3.0 2.0
0.0 4.0 2.0
1.0 4.0 2.0
2.0 4.0 2.0
3.0 4.0 2.0
4.0 4.0 2.0
5.0 4.0 2.0
0.0 5.0 2.0
1.0 5.0 2.0
2.0 5.0 2.0
3.0 5.0 2.0
4.0 5.0 2.0
5.0 5.0 2.0
0.0 0.0 3.0
1.0 0.0 3.0
2.0 0.0 3.0
3.0 0.0 3.0
4.0 0.0 3.0
5.0 0.0 3.0
0.0 1.0 3.0
1.0 1.0 3.0
2.0 1.0 3.0
3.0 1.0 3.0
4.0 1.0 3.0
5.0 1.0 3.0
0.0 2.0 3.0
1.0 2.0 3.0
2.0 2.0 3.0
3.0 2.0 3.0
4.0 2.0 3.0
5.0 2.0 3.0
0.0 3.0 3.0
1.0 3.0 3.0
2.0 3.0 3.0
3.0 3.0 3.0
4.0 3.0 3.0
5.0 3.0 3.0
0.0 4.0 3.0
1.0 4.0 3.0
2.0 4.0 3.0
3.0 4.0 3.0
4.0 4.0 3.0
5.0 4.0 3.0
0.0 5.0 3.0
1.0 5.0 3.0
2.0 5.0 3.0
3.0 5.0 3.0
4.0 5.0 3.0
5.0 5.0 3.0
0.0 0.0 4.0
1.0 0.0 4.0
2.0 0.0 4.0
3.0 0.0 4.0
4.0 0.0 4.0
5.0 0.0 4.0
0.0 1.0 4.0
1.0 1.0 4.0
2.0 1.0 4.0
3.0 1.0 4.0
4.0 1.0 4.0
5.0 1.0 4.0
0.0 2.0 4.0
1.0 2.0 4.0
2.0 2.0 4.0
3.0 2.0 4.0
4.0 2.0 4.0
5.0 2.0 4.0
0.0 3.0 4.0
1.0 3.0 4.0
2.0 3.0 4.0
3.0 3.0 4.0
4.0 3.0 4.0
5.0 3.0 4.0
0.0 4.0 4.0
1.0 4.0 4.0
2.0 4.0 4.0
3.0 4.0 4.0
4.0 4.0 4.0
5.0 4.0 4.0
0.0 5.0 4.0
1.0 5.0 4.0
2.0 5.0 4.0
3.0 5.0 4.0
4.0 5.0 4.0
5.0 5.0 4.0
0.0 0.0 5.0
1.0 0.0 5.0
2.0 0.0 5.0
3.0 0.0 5.0
4.0 0.0 5.0
5.0 0.0 5.0
0.0 1.0 5.0
1.0 1.0 5.0
2.0 1.0 5.0
3.0 1.0 5.0
4.0 1.0 5.0
5.0 1.0 5.0
0.0 2.0 5.0
1.0 2.0 5.0
2.0 2.0 5.0
3.0 2.0 5.0
4.0 2.0 5.0
5.0 2.0 5.0
0.0 3.0 5.0
1.0 3.0 5.0
2.0 3.0 5.0
3.0 3.0 5.0
4.0 3.0 5.0
5.0 3.0 5.0
0.0 4.0 5.0
1.0 4.0 5.0
2.0 4.0 5.0
3.0 4.0 5.0
4.0 4.0 5.0
5.0 4.0 5.0
0.0 5.0 5.0
1.0 5.0 5.0
2.0 5.0 5.0
3.0 5.0 5.0
4.0 5.0 5.0
5.0 5.0 5.0
CELLS 750 3750
4 0 1 7 43
4 0 7 6 43
4 0 6 42 43
4 0 42 36 43
4 0 36 37 43
4 0 37 1 43
4 1 2 8 44
4 1 8 7 44
4 1 7 43 44
4 1 43 37 44
4 1 37 38 44
4 1 38 2 44
4 2 3 9 45
4 2 9 8 45
4 2 8 44 45
4 2 44 38 45
4 2 38 39 45
4 2 39 3 45
4 3 4 10 46
4 3 10 9 46
4 3 9 45 46
4 3 45 39 46
4 3 39 40 46
4 3 40 4 46
4 4 5 11 47
4 4 11 10 47
4 4 10 46 47
4 4 46 40 47
4 4 40 41 47
4 4 41 5 47
4 6 7 13 49
4 6 13 12 49
4 6 12 48 49
4 6 48 42 49
4 6 42 43 49
4 6 43 7 49
4 7 8 14 50
4 7 14 13 50
4 7 13 49 50
4 7 49 43 50
4 7 43 44 50
4 7 44 8 50
4 8 9 15 51
4 8 15 14 51
4 8 14 50 51
4 8 50 44 51
4 8 44 45 51
4 8 45 9 51
4 9 10 16 52
4 9 16 15 52
4 9 15 51 52
4 9 51 45 52
4 9 45 46 52
4 9 46 10 52
4 10 11 17 53
4 10 17 16 53
4 10 16 52 53
4 10 52 46 53
4 10 46 47 53
4 10 47 11 53
4 12 13 19 55
4 12 19 18 55
4 12 18 54 55
4 12 54 48 55
4 12 48 49 55
4 12 49 13 55
4 13 14 20 56
4 13 20 19 56
4 13 19 55 56
4 13 55 49 56
4 13 49 50 56
4 13 50 14 56
4 14 15 21 57
4 14 21 20 57
4 14 20 56 57
4 14 56 50 57
4 14 50 51 57
4 14 51 15 57
4 15 16 22 58
4 15 22 21 58
4 15 21 57 58
4 15 57 51 58
4 15 51 52 58
4 15 52 16 58
4 16 17 23 59
4 16 23 22 59
4 16 22 58 59
4 16 58 52 59
4 16 52 53 59
4 16 53 17 59
4 18 19 25 61
4 18 25 24 61
4 18 24 60 61
4 18 60 54 61
4 18 54 55 61
4 18 55 19 61
4 19 20 26 62
4 19 26 25 62
4 19 25 61 62
4 19 61 55 62
4 19 55 56 62
4 19 56 20 62
4 20 21 27 63
4 20 27 26 63
4 20 26 62 63
4 20 62 56 63
4 20 56 57 63
4 20 57 21 63
4 21 22 28 64
4 21 28 27 64
4 21 27 63 64
4 21 63 57 64
4 21 57 58 64
4 21 58 22 64
4 22 23 29 65
4 22 29 28 65
4 22 28 64 65
4 22 64 58 65
4 22 58 59 65
4 22 59 23 65
4 24 25 31 67
4 24 31 30 67
4 24 30 66 67
4 24 66 60 67
4 24 60 61 67
4 24 61 25 67
4 25 26 32 68
4 25 32 31 68
4 25 31 67 68
4 25 67 61 68
4 25 61 62 68
4 25 62 26 68
4 26 27 33 69
4 26 33 32 69
4 26 32 68 69
4 26 68 62 69
4 26 62 63 69
4 26 63 27 69
4 27 28 34 70
4 27 34 33 70
4 27 33 69 70
4 27 69 63 70
4 27 63 64 70
4 27 64 28 70
4 28 29 35 71
4 28 35 34 71
4 28 34 70 71
4 28 70 64 71
4 28 64 65 71
4 28 65 29 71
4 36 37 43 79
4 36 43 42 79
4 36 42 78 79
4 36 78 72 79
4 36 72 73 79
4 36 73 37 79
4 37 38 44 80
4 37 44 43 80
4 37 43 79 80
4 37 79 73 80
4 37 73 74 80
4 37 74 38 80
4 38 39 45 81
4 38 45 44 81
4 38 44 80 81
4 38 80 74 81
4 38 74 75 81
4 38 75 39 81
4 39 40 46 82
4 39 46 45 82
4 39 45 81 82
4 39 81 75 82
4 39 75 76 82
4 39 76 40 82
4 40 41 47 83
4 40 47 46 83
4 40 46 82 83
4 40 82 76 83
4 40 76 77 83
4 40 77 41 83
4 42 43 49 85
4 42 49 48 85
4 42 48 84 85
4 42 84 78 85
4 42 78 79 85
4 42 79 43 85
4 43 44 50 86
4 43 50 49 86
4 43 49 85 86
4 43 85 79 86
4 43 79 80 86
4 43 80 44 86
4 44 45 51 87
4 44 51 50 87
4 44 50 86 87
4 44 86 80 87
4 44 80 81 87
4 44 81 45 87
4 45 46 52 88
4 45 52 51 88
4 45 51 87 88
4 45 87 81 88
4 45 81 82 88
4 45 82 46 88
4 46 47 53 89
4 46 53 52 89
4 46 52 88 89
4 46 88 82 89
4 46 82 83 89
4 46 83 47 89
4 48 49 55 91
4 48 55 54 91
4 48 54 90 91
4 48 90 84 91
4 48 84 85 91
4 48 85 49 91
4 49 50 56 92
4 49 56 55 92
4 49 55 91 92
4 49 91 85 92
4 49 85 86 92
4 49 86 50 92
4 50 51 57 93
4 50 57 56 93
4 50 56 92 93
4 50 92 86 93
4 50 86 87 93
4 50 87 51 93
4 51 52 58 94
4 51 58 57 94
4 51 57 93 94
4 51 93 87 94
4 51 87 88 94
4 51 88 52 94
4 52 53 59 95
4 52 59 58 95
4 52 58 94 95
4 52 94 88 95
4 52 88 89 95
4 52 89 53 95
4 54 55 61 97
4 54 61 60 97
4 54 60 96 97
4 54 96 90 97
4 54 90 91 97
4 54 91 55 97
4 55 56 62 98
4 55 62 61 98
4 55 61 97 98
4 55 97 91 98
4 55 91 92 98
4 55 92 56 98
4 56 57 63 99
4 56 63 62 99
4 56 62 98 99
4 56 98 92 99
4 56 92 93 99
4 56 93 57 99
4 57 58 64 100
4 57 64 63 100
4 57 63 99 100
4 57 99 93 100
4 57 93 94 100
4 57 94 58 100
4 58 59 65 101
4 58 65 64 101
4 58 64 100 101
4 58 100 94 101
4 58 94 95 101
4 58 95 59 101
4 60 61 67 103
4 60 67 66 103
4 60 66 102 103
4 60 102 96 103
4 60 96 97 103
4 60 97 61 103
4 61 62 68 104
4 61 68 67 104
4 61 67 103 104
4 61 103 97 104
4 61 97 98 104
4 61 98 62 104
4 62 63 69 105
4 62 69 68 105
4 62 68 104 105
4 62 104 98 105
4 62 98 99 105
4 62 99 63 105
4 63 64 70 106
4 63 70 69 106
4 63 69 105 106
4 63 105 99 106
4 63 99 100 106
4 63 100 64 106
4 64 65 71 107
4 64 71 70 107
4 64 70 106 107
4 64 106 100 107
4 64 100 101 107
4 64 101 65 107
4 72 73 79 115
4 72 79 78 115
4 72 78 114 115
4 72 114 108 115
4 72 108 109 115
4 72 109 73 115
4 73 74 80 116
4 73 80 79 116
4 73 79 115 116
4 73 115 109 116
4 73 109 110 116
4 73 110 74 116
4 74 75 81 117
4 74 81 80 117
4 74 80 116 117
4 74 116 110 117
4 74 110 111 117
4 74 111 75 117
4 75 76 82 118
4 75 82 81 118
4 75 81 117 118
4 75 117 111 118
4 75 111 112 118
4 75 112 76 118
4 76 77 83 119
4 76 83 82 119
4 76 82 118 119
4 76 118 112 119
4 76 112 113 119
4 76 113 77 119
4 78 79 85 121
4 78 85 84 121
4 78 84 120 121
4 78 120 114 121
4 78 114 115 121
4 78 115 79 121
4 79 80 86 122
4 79 86 85 122
4 79 85 121 122
4 79 121 115 122
4 79 115 116 122
4 79 116 80 122
4 80 81 87 123
4 80 87 86 123
4 80 86 122 123
4 80 122 116 123
4 80 116 117 123
4 80 117 81 123
4 81 82 88 124
4 81 88 87 124
4 81 87 123 124
4 81 123 117 124
4 81 117 118 124
4 81 118 82 124
4 82 83 89 125
4 82 89 88 125
4 82 88 124 125
4 82 124 118 125
4 82 118 119 125
4 82 119 83 125
4 84 85 91 127
4 84 91 90 127
4 84 90 126 127
4 84 126 120 127
4 84 120 121 127
4 84 121 85 127
4 85 86 92 128
4 85 92 91 128
4 85 91 127 128
4 85 127 121 128
4 85 121 122 128
4 85 122 86 128
4 86 87 93 129
4 86 93 92 129
4 86 92 128 129
4 86 128 122 129
4 86 122 123 129
4 86 123 87 129
4 87 88 94 130
4 87 94 93 130
4 87 93 129 130
4 87 129 123 130
4 87 123 124 130
4 87 124 88 130
4 88 89 95 131
4 88 95 94 131
4 88 94 130 131
4 88 130 124 131
4 88 124 125 131
4 88 125 89 131
4 90 91 97 133
4 90 97 96 133
4 90 96 132 133
4 90 132 126 133
4 90 126 127 133
4 90 127 91 133
4 91 92 98 134
4 91 98 97 134
4 91 97 133 134
4 91 133 127 134
4 91 127 128 134
4 91 128 92 134
4 92 93 99 135
4 92 99 98 135
4 92 98 134 135
4 92 134 128 135
4 92 128 129 135
4 92 129 93 135
4 93 94 100 136
4 93 100 99 136
4 93 99 135 136
4 93 135 129 136
4 93 129 130 136
4 93 130 94 136
4 94 95 101 137
4 94 101 100 137
4 94 100 136 137
4 94 136 130 137
4 94 130 131 137
4 94 131 95 137
4 96 97 103 139
4 96 103 102 139
4 96 102 138 139
4 96 138 132 139
4 96 132 133 139
4 96 133 97 139
4 97 98 104 140
4 97 104 103 140
4 97 103 139 140
4 97 139 133 140
4 97 133 134 140
4 97 134 98 140
4 98 99 105 141
4 98 105 104 141
4 98 104 140 141
4 98 140 134 141
4 98 134 135 141
4 98 135 99 141
4 99 100 106 142
4 99 106 105 142
4 99 105 141 142
4 99 141 135 142
4 99 135 136 142
4 99 136 100 142
4 100 101 107 143
4 100 107 106 143
4 100 106 142 143
4 100 142 136 143
4 100 136 137 143
4 100 137 101 143
4 108 109 115 151
4 108 115 114 151
4 108 114 150 151
4 108 150 144 151
4 108 144 145 151
4 108 145 109 151
4 109 110 116 152
4 109 116 115 152
4 109 115 151 152
4 109 151 145 152
4 109 145 146 152
4 109 146 110 152
4 110 111 117 153
4 110 117 116 153
4 110 116 152 153
4 110 152 146 153
4 110 146 147 153
4 110 147 111 153
4 111 112 118 154
4 111 118 117 154
4 111 117 153 154
4 111 153 147 154
4 111 147 148 154
4 111 148 112 154
4 112 113 119 155
4 112 119 118 155
4 112 118 154 155
4 112 154 148 155
4 112 148 149 155
4 112 149 113 155
4 114 115 121 157
4 114 121 120 157
4 114 120 156 157
4 114 156 150 157
4 114 150 151 157
4 114 151 115 157
4 115 116 122 158
4 115 122 121 158
4 115 121 157 158
4 115 157 151 158
4 115 151 152 158
4 115 152 116 158
4 116 117 123 159
4 116 123 122 159
4 116 122 158 159
4 116 158 152 159
4 116 152 153 159
4 116 153 117 159
4 117 118 124 160
4 117 124 123 160
4 117 123 159 160
4 117 159 153 160
4 117 153 154 160
4 117 154 118 160
4 118 119 125 161
4 118 125 124 161
4 118 124 160 161
4 118 160 154 161
4 118 154 155 161
4 118 155 119 161
4 120 121 127 163
4 120 127 126 163
4 120 126 162 163
4 120 162 156 163
4 120 156 157 163
4 120 157 121 163
4 121 122 128 164
4 121 128 127 164
4 121 127 163 164
4 121 163 157 164
4 121 157 158 164
4 121 158 122 164
4 122 123 129 165
4 122 129 128 165
4 122 128 164 165
4 122 164 158 165
4 122 158 159 165
4 122 159 123 165
4 123 124 130 166
4 123 130 129 166
4 123 129 165 166
4 123 165 159 166
4 123 159 160 166
4 123 160 124 166
4 124 125 131 167
4 124 131 130 167
4 124 130 166 167
4 124 166 160 167
4 124 160 161 167
4 124 161 125 167
4 126 127 133 169
4 126 133 132 169
4 126 132 168 169
4 126 168 162 169
4 126 162 163 169
4 126 163 127 169
4 127 128 134 170
4 127 134 133 170
4 127 133 169 170
4 127 169 163 170
4 127 163 164 170
4 127 164 128 170
4 128 129 135 171
4 128 135 134 171
4 128 134 170 171
4 128 170 164 171
4 128 164 165 171
4 128 165 129 171
4 129 130 136 172
4 129 136 135 172
4 129 135 171 172
4 129 171 165 172
4 129 165 166 172
4 129 166 130 172
4 130 131 137 173
4 130 137 136 173
4 130 136 172 173
4 130 172 166 173
4 130 166 167 173
4 130 167 131 173
4 132 133 139 175
4 132 139 138 175
4 132 138 174 175
4 132 174 168 175
4 132 168 169 175
4 132 169 133 175
4 133 134 140 176
4 133 140 139 176
4 133 139 175 176
4 133 175 169 176
4 133 169 170 176
4 133 170 134 176
4 134 135 141 177
4 134 141 140 177
4 134 140 176 177
4 134 176 170 177
4 134 170 171 177
4 134 171 135 177
4 135 136 142 178
4 135 142 141 178
4 135 141 177 178
4 135 177 171 178
4 135 171 172 178
4 135 172 136 178
4 136 137 143 179
4 136 143 142 179
4 136 142 178 179
4 136 178 172 179
4 136 172 173 179
4 136 173 137 179
4 144 145 151 187
4 144 151 150 187
4 144 150 186 187
4 144 186 180 187
4 144 180 181 187
4 144 181 145 187
4 145 146 152 188
4 145 152 151 188
4 145 151 187 188
4 145 187 181 188
4 145 181 182 188
4 145 182 146 188
4 146 147 153 189
4 146 153 152 189
4 146 152 188 189
4 146 188 182 189
4 146 182 183 189
4 146 183 147 189
4 147 148 154 190
4 147 154 153 190
4 147 153 189 190
4 147 189 183 190
4 147 183 184 190
4 147 184 148 190
4 148 149 155 191
4 148 155 154 191
4 148 154 190 191
4 148 190 184 191
4 148 184 185 191
4 148 185 149 191
4 150 151 157 193
4 150 157 156 193
4 150 156 192 193
4 150 192 186 193
4 150 186 187 193
4 150 187 151 193
4 151 152 158 194
4 151 158 157 194
4 151 157 193 194
4 151 193 187 194
4 151 187 188 194
4 151 188 152 194
4 152 153 159 195
4 152 159 158 195
4 152 158 194 195
4 152 194 188 195
4 152 188 189 195
4 152 189 153 195
4 153 154 160 196
4 153 160 159 196
4 153 159 195 196
4 153 195 189 196
4 153 189 190 196
4 153 190 154 196
4 154 155 161 197
4 154 161 160 197
4 154 160 196 197
4 154 196 190 197
4 154 190 191 197
4 154 191 155 197
4 156 157 163 199
4 156 163 162 199
4 156 162 198 199
4 156 198 192 199
4 156 192 193 199
4 156 193 157 199
4 157 158 164 200
4 157 164 163 200
4 157 163 199 200
4 157 199 193 200
4 157 193 194 200
4 157 194 158 200
4 158 159 165 201
4 158 165 164 201
4 158 164 200 201
4 158 200 194 201
4 158 194 195 201
4 158 195 159 201
4 159 160 166 202
4 159 166 165 202
4 159 165 201 202
4 159 201 195 202
4 159 195 196 202
4 159 196 160 202
4 160 161 167 203
4 160 167 166 203
4 160 166 202 203
4 160 202 196 203
4 160 196 197 203
4 160 197 161 203
4 162 163 169 205
4 162 169 168 205
4 162 168 204 205
4 162 204 198 205
4 162 198 199 205
4 162 199 163 205
4 163 164 170 206
4 163 170 169 206
4 163 169 205 206
4 163 205 199 206
4 163 199 200 206
4 163 200 164 206
4 164 165 171 207
4 164 171 170 207
4 164 170 206 207
4 164 206 200 207
4 164 200 201 207
4 164 201 165 207
4 165 166 172 208
4 165 172 171 208
4 165 171 207 208
4 165 207 201 208
4 165 201 202 208
4 165 202 166 208
4 166 167 173 209
4 166 173 172 209
4 166 172 208 209
4 166 208 202 209
4 166 202 203 209
4 166 203 167 209
4 168 169 175 211
4 168 175 174 211
4 168 174 210 211
4 168 210 204 211
4 168 204 205 211
4 168 205 169 211
4 169 170 176 212
4 169 176 175 212
4 169 175 211 212
4 169 211 205 212
4 169 205 206 212
4 169 206 170 212
4 170 171 177 213
4 170 177 176 213
4 170 176 212 213
4 170 212 206 213
4 170 206 207 213
4 170 207 171 213
4 171 172 178 214
4 171 178 177 214
4 171 177 213 214
4 171 213 207 214
4 171 207 208 214
4 171 208 172 214
4 172 173 179 215
4 172 179 178 215
4 172 178 214 215
4 172 214 208 215
4 172 208 209 215
4 172 209 173 215
CELL_TYPES 750
10
10
10
10
10
10
10
10
10
10
10
10
10
10
10
10
10
10
10
10
10
10
10
10
10
10
10
10
10
10
10
10
10
10
10
10
10
10
10
10
10
10
10
10
10
10
10
10
10
10
10
10
10
10
10
10
10
10
10
10
10
10
10
10
10
10
10
10
10
10
10
10
10
10
10
10
10
10
10
10
10
10
10
10
10
10
10
10
10
10
10
10
10
10
10
10
10
10
10
10
10
10
10
10
10
10
10
10
10
10
10
10
10
10
10
10
10
10
10
10
10
10
10
10
10
10
10
10
10
10
10
10
10
10
10
10
10
10
10
10
10
10
10
10
10
10
10
10
10
10
10
10
10
10
10
10
10
10
10
10
10
10
10
10
10
10
10
10
10
10
10
10
10
10
10
10
10
10
10
10
10
10
10
10
10
10
10
10
10
10
10
10
10
10
10
10
10
10
10
10
10
10
10
10
10
10
10
10
10
10
10
10
10
10
10
10
10
10
10
10
10
10
10
10
10
10
10
10
10
10
10
10
10
10
10
10
10
10
10
10
10
10
10
10
10
10
10
10
10
10
10
10
10
10
10
10
10
10
10
10
10
10
10
10
10
10
10
10
10
10
10
10
10
10
10
10
10
10
10
10
10
10
10
10
10
10
10
10
10
10
10
10
10
10
10
10
10
10
10
10
10
10
10
10
10
10
10
10
10
10
10
10
10
10
10
10
10
10
10
10
10
10
10
10
10
10
10
10
10
10
10
10
10
10
10
10
10
10
10
10
10
10
10
10
10
10
10
10
10
10
10
10
10
10
10
10
10
10
10
10
10
10
10
10
10
10
10
10
10
10
10
10
10
10
10
10
10
10
10
10
10
10
10
10
10
10
10
10
10
10
10
10
10
10
10
10
10
10
10
10
10
10
10
10
10
10
10
10
10
10
10
10
10
10
10
10
10
10
10
10
10
10
10
10
10
10
10
10
10
10
10
10
10
10
10
10
10
10
10
10
10
10
10
10
10
10
10
10
10
10
10
10
10
10
10
10
10
10
10
10
10
10
10
10
10
10
10
10
10
10
10
10
10
10
10
10
10
10
10
10
10
10
10
10
10
10
10
10
10
10
10
10
10
10
10
10
10
10
10
10
10
10
10
10
10
10
10
10
10
10
10
10
10
10
10
10
10
10
10
10
10
10
10
10
10
10
10
10
10
10
10
10
10
10
10
10
10
10
10
10
10
10
10
10
10
10
10
10
10
10
10
10
10
10
10
10
10
10
10
10
10
10
10
10
10
10
10
10
10
10
10
10
10
10
10
10
10
10
10
10
10
10
10
10
10
10
10
10
10
10
10
10
10
10
10
10
10
10
10
10
10
10
10
10
10
10
10
10
10
10
10
10
10
10
10
10
10
10
10
10
10
10
10
10
10
10
10
10
10
10
10
10
10
10
10
10
10
10
10
10
10
10
10
10
10
10
10
10
10
10
10
10
10
10
10
10
10
10
10
10
10
10
10
10
10
10
10
10
10
10
10
10
10
10
10
10
10
10
10
10
10
10
10
10
10
10
10
10
10
10
10
10
10
10
10
10
10
10
10
10
10
10
10
10
10
10
10
10
10
10
10
10
10
10
10
10
10
10
10
10
10
10
10
10
10
10
10
10
10
10
10
10
10
10
10
10
10
10
10
10
10
10
10
10
10
10
10
10
10
10
POINT_DATA 216
SCALARS P double 1
LOOKUP_TABLE default
0.00000000
1.00000000
2.00000000
3.00000000
4.00000000
5.00000000
2.00000000
3.00000000
4.00000000
5.00000000
6.00000000
7.00000000
4.00000000
5.00000000
6.00000000
7.00000000
8.00000000
9.00000000
6.00000000
7.00000000
8.00000000
9.00000000
10.00000000
11.00000000
8.00000000
9.00000000
10.00000000
11.00000000
12.00000000
13.00000000
10.00000000
11.00000000
12.00000000
13.00000000
14.00000000
15.00000000
3.00000000
4.00000000
5.00000000
6.00000000
7.00000000
8.00000000
5.00000000
6.00000000
7.00000000
8.00000000
9.00000000
10.00000000
7.00000000
8.00000000
9.00000000
10.00000000
11.00000000
12.00000000
9.00000000
10.00000000
11.00000000
12.00000000
13.00000000
14.00000000
11.00000000
12.00000000
13.00000000
14.00000000
15.00000000
16.00000000
13.00000000
14.00000000
15.00000000
16.00000000
17.00000000
18.00000000
6.00000000
7.00000000
8.00000000
9.00000000
10.00000000
11.00000000
8.00000000
9.00000000
10.00000000
11.00000000
12.00000000
13.00000000
10.00000000
11.00000000
12.00000000
13.00000000
14.00000000
15.00000000
12.00000000
13.00000000
14.00000000
15.00000000
16.00000000
17.00000000
14.00000000
15.00000000
16.00000000
17.00000000
18.00000000
19.00000000
16.00000000
17.00000000
18.00000000
19.00000000
20.00000000
21.00000000
9.00000000
10.00000000
11.00000000
12.00000000
13.00000000
14.00000000
11.00000000
12.00000000
13.00000000
14.00000000
15.00000000
16.00000000
13.00000000
14.00000000
15.00000000
16.00000000
17.00000000
18.00000000
15.00000000
16.00000000
17.00000000
18.00000000
19.00000000
20.00000000
17.00000000
18.00000000
19.00000000
20.00000000
21.00000000
22.00000000
19.00000000
20.00000000
21.00000000
22.00000000
23.00000000
24.00000000
12.00000000
13.00000000
14.00000000
15.00000000
16.00000000
17.00000000
14.00000000
15.00000000
16.00000000
17.00000000
18.00000000
19.00000000
16.00000000
17.00000000
18.00000000
19.00000000
20.00000000
21.00000000
18.00000000
19.00000000
20.00000000
21.00000000
22.00000000
23.00000000
20.00000000
21.00000000
22.00000000
23.00000000
24.00000000
25.00000000
22.00000000
23.00000000
24.00000000
25.00000000
26.00000000
27.00000000
15.00000000
16.00000000
17.00000000
18.00000000
19.00000000
20.00000000
17.00000000
18.00000000
19.00000000
20.00000000
21.00000000
22.00000000
19.00000000
20.00000000
21.00000000
22.00000000
23.00000000
24.00000000
21.00000000
22.00000000
23.00000000
24.00000000
25.00000000
26.00000000
23.00000000
24.00000000
25.00000000
26.00000000
27.00000000
28.00000000
25.00000000
26.00000000
27.00000000
28.00000000
29.00000000
30.00000000
